<?xml version="1.0" encoding="utf-8"?>
<!-- Generator: Adobe Illustrator 18.0.0, SVG Export Plug-In . SVG Version: 6.00 Build 0)  -->
<!DOCTYPE svg PUBLIC "-//W3C//DTD SVG 1.1//EN" "http://www.w3.org/Graphics/SVG/1.1/DTD/svg11.dtd" [
	<!ENTITY ns_extend "http://ns.adobe.com/Extensibility/1.0/">
	<!ENTITY ns_ai "http://ns.adobe.com/AdobeIllustrator/10.0/">
	<!ENTITY ns_graphs "http://ns.adobe.com/Graphs/1.0/">
	<!ENTITY ns_vars "http://ns.adobe.com/Variables/1.0/">
	<!ENTITY ns_imrep "http://ns.adobe.com/ImageReplacement/1.0/">
	<!ENTITY ns_sfw "http://ns.adobe.com/SaveForWeb/1.0/">
	<!ENTITY ns_custom "http://ns.adobe.com/GenericCustomNamespace/1.0/">
	<!ENTITY ns_adobe_xpath "http://ns.adobe.com/XPath/1.0/">
]>
<svg version="1.1" id="Layer_1" xmlns:x="&ns_extend;" xmlns:i="&ns_ai;" xmlns:graph="&ns_graphs;"
	 xmlns="http://www.w3.org/2000/svg" xmlns:xlink="http://www.w3.org/1999/xlink" x="0px" y="0px" width="144px" height="144px"
	 viewBox="-21.1 -5.5 144 144" enable-background="new -21.1 -5.5 144 144" xml:space="preserve">
<metadata><?xpacket begin="﻿" id="W5M0MpCehiHzreSzNTczkc9d"?>
<x:xmpmeta xmlns:x="adobe:ns:meta/" x:xmptk="Adobe XMP Core 5.6-c011 79.156289, 2014/03/31-23:39:12        ">
   <rdf:RDF xmlns:rdf="http://www.w3.org/1999/02/22-rdf-syntax-ns#">
      <rdf:Description rdf:about=""
            xmlns:dc="http://purl.org/dc/elements/1.1/"
            xmlns:xmp="http://ns.adobe.com/xap/1.0/"
            xmlns:xmpGImg="http://ns.adobe.com/xap/1.0/g/img/"
            xmlns:xmpMM="http://ns.adobe.com/xap/1.0/mm/"
            xmlns:stRef="http://ns.adobe.com/xap/1.0/sType/ResourceRef#"
            xmlns:stEvt="http://ns.adobe.com/xap/1.0/sType/ResourceEvent#"
            xmlns:illustrator="http://ns.adobe.com/illustrator/1.0/"
            xmlns:xmpTPg="http://ns.adobe.com/xap/1.0/t/pg/"
            xmlns:stDim="http://ns.adobe.com/xap/1.0/sType/Dimensions#"
            xmlns:xmpG="http://ns.adobe.com/xap/1.0/g/"
            xmlns:pdf="http://ns.adobe.com/pdf/1.3/">
         <dc:format>image/svg+xml</dc:format>
         <dc:title>
            <rdf:Alt>
               <rdf:li xml:lang="x-default">Print</rdf:li>
            </rdf:Alt>
         </dc:title>
         <xmp:MetadataDate>2015-11-10T19:47:44-05:00</xmp:MetadataDate>
         <xmp:ModifyDate>2015-11-10T19:47:44-05:00</xmp:ModifyDate>
         <xmp:CreateDate>2015-11-10T19:47:43-05:00</xmp:CreateDate>
         <xmp:CreatorTool>Adobe Illustrator CC 2014 (Macintosh)</xmp:CreatorTool>
         <xmp:Thumbnails>
            <rdf:Alt>
               <rdf:li rdf:parseType="Resource">
                  <xmpGImg:width>196</xmpGImg:width>
                  <xmpGImg:height>256</xmpGImg:height>
                  <xmpGImg:format>JPEG</xmpGImg:format>
                  <xmpGImg:image>/9j/4AAQSkZJRgABAgEASABIAAD/7QAsUGhvdG9zaG9wIDMuMAA4QklNA+0AAAAAABAASAAAAAEA&#xA;AQBIAAAAAQAB/+4ADkFkb2JlAGTAAAAAAf/bAIQABgQEBAUEBgUFBgkGBQYJCwgGBggLDAoKCwoK&#xA;DBAMDAwMDAwQDA4PEA8ODBMTFBQTExwbGxscHx8fHx8fHx8fHwEHBwcNDA0YEBAYGhURFRofHx8f&#xA;Hx8fHx8fHx8fHx8fHx8fHx8fHx8fHx8fHx8fHx8fHx8fHx8fHx8fHx8fHx8f/8AAEQgBAADEAwER&#xA;AAIRAQMRAf/EAaIAAAAHAQEBAQEAAAAAAAAAAAQFAwIGAQAHCAkKCwEAAgIDAQEBAQEAAAAAAAAA&#xA;AQACAwQFBgcICQoLEAACAQMDAgQCBgcDBAIGAnMBAgMRBAAFIRIxQVEGE2EicYEUMpGhBxWxQiPB&#xA;UtHhMxZi8CRygvElQzRTkqKyY3PCNUQnk6OzNhdUZHTD0uIIJoMJChgZhJRFRqS0VtNVKBry4/PE&#xA;1OT0ZXWFlaW1xdXl9WZ2hpamtsbW5vY3R1dnd4eXp7fH1+f3OEhYaHiImKi4yNjo+Ck5SVlpeYmZ&#xA;qbnJ2en5KjpKWmp6ipqqusra6voRAAICAQIDBQUEBQYECAMDbQEAAhEDBCESMUEFURNhIgZxgZEy&#xA;obHwFMHR4SNCFVJicvEzJDRDghaSUyWiY7LCB3PSNeJEgxdUkwgJChgZJjZFGidkdFU38qOzwygp&#xA;0+PzhJSktMTU5PRldYWVpbXF1eX1RlZmdoaWprbG1ub2R1dnd4eXp7fH1+f3OEhYaHiImKi4yNjo&#xA;+DlJWWl5iZmpucnZ6fkqOkpaanqKmqq6ytrq+v/aAAwDAQACEQMRAD8A9U4q7FXYq7FXYq7FXYq7&#xA;FXYq7FWO+d/Pvl3yXpkeoa3K6xzSCGCKFecjvSp4rUbACpJOAmlRflXzboHmrSRquh3QurMuYmbi&#xA;yMsigFkZXAIIDDEFU3wqkPnzW9U0Lydq2saXbrdX9jbtNDC4JX4acmYKQSEWrEA9sBV5Z+T/APzk&#xA;Dc+Y9ZTQPM6W9vd3C8dPvIQ0ayzV/unUlgGYfZpQE7dSMAkry3/nIHX9QvvzN1azN5LJYWLQRW1u&#xA;Xb042WBDJxWtAfUZt8jLmr6X/KnzO/mX8v8ARtVmbndND6N2x6maAmJ2P+uU5fTkwVZZhV2KuxV2&#xA;KuxV2KuxV2KuxV2KuxV2KuxV2KuxV2KpfrPmHQtEhjn1jULfToZX9OKS5lSJWbrQFyMVQkfnjyVJ&#xA;HLLHr+mvFAaTSLdwFUP+UQ9BgtXgP/OQ35r+V/Mdlb+XdD4agLecXE+qAHgjKpX04GNOXLl8TfZ8&#xA;K9oyKsM/Jf8AMu58meZ4kuJT+gdRdYtSiY/ClTRbgeDR9/FajwoImlfZgIIBBqDuCMsVp0SRGR1D&#xA;o4KsrCoIOxBBxV8MfmD5dk8p+e9U0qAtGtlc+pZOCQwieksBB8QjLv45UVSbWta1PW9UuNV1Sc3N&#xA;/dMGnnIVSxACjZAqjYDoMCvpj/nFa/abyPqVkzVNrqDMg8ElijNP+CVjlkVe05JXYq7FXYq7FXYq&#xA;7FXYq7FXYq7FXYq7FXYq7FXYq87/ADm/KpvP2k2v1W7+q6ppnqtZCT+5k9YJzSSgLLX01ow6eBwE&#xA;Wr5I8xeWtc8uanJpmtWclneRdUcbMvQMjD4XU9mU0yulSzArsVfa/wCSvmCTXPy00W6mYvcQRGzn&#xA;J3PK2YxKSfFkVT9OWx5KzfCr5a/5yo0tbfztp2oIKC+sQr7dXgkYE/8AAOoyuSvFsir6a/5xPjce&#xA;WtckI+Br2NVPusQJ/wCJDJwV7pk1dirsVdirsVdirsVdirsVdirsVdirsVdirsVdirsVSTzb5L8u&#xA;ebNMbTtbtFuItzFKPhliY/txP1U/ge9RgIV8pfmb+UGueQb5b5FGpaA70hvGSoWp2iuFH2WPQMNj&#xA;2odhAilec5FX1H/zipetJ5L1SzJr9X1AyL7CWGPb70OWRV7XklfOv/OW0aCbytKPtst8pHsptyP+&#xA;JHITV89im9foyCvrf/nGbSzZ/lmlywodSvJ7lT3KpxgH4wnLI8ler5JXYq7FXYq7FXYq7FXYq7FX&#xA;Yq7FXYq7FXYq7FXYq7FXYqh9R0+y1KxnsL6FbizukaKeBxVWRhQg4q+K/wA2Py/m8kebZtMUmTTp&#xA;1+sabM25MDEgKx/mQgqfv75URSvXf+cSpAbDzLHy3WW0Yr4cllFfp45KCvf8mr5n/wCcsbxH8w6D&#xA;ZinOG0lmI70ml4j/AJNHITV4UiO7qiKWdiAqgVJJ6ADIK+8/JWgroHlLSNGAAaytYopadDLxrIfp&#xA;ck5aFTrCrsVdirsVdirsVdirsVdirsVU7i4t7a3kuLiRYbeFTJLLIQqIiirMzHYADFXgPn7/AJyg&#xA;WGeWw8m2yTBCVOrXQPA+8MPwmngz/wDA5AyV5Jqn5w/mdqUhefzHeRVP2bV/qoH0QCPI2VSc+dfO&#xA;RNTr2o1/5i5/+a8bVHWH5ofmLYsDb+ZNRotOKSXEkyCn+RKXX8MbKsz0H/nJn8xdPZV1E22rwj7X&#xA;rxCKSns8HpivuVOHiKvWfJ//ADkp5H1p0t9WWTQrx9qzkSWxPgJ1A4/N1Ue+SEler29xb3MEdxby&#xA;pNBKoaKWNg6Mp6FWFQRklVMVeCf85Y6OH0jQdZUb29xLZyN4idBIlfl6LffkJqg/+cR/+mr/AO3f&#xA;/wBjOMFfQ+TV8ef85E6yNS/NG/jRuUenRQ2aH/VT1HH0SSsMrlzVC/kV5TPmP8xtOSROdnpp/SF3&#xA;4UgIMYP+tKUFPCuMRur7NyxXYqg9Y1nStG0+XUdVuo7OygFZJ5W4qPADxJ7AbntirwLzv/zlLJ6k&#xA;lp5Osl4Alf0neqSW7VigBFPEFz81yBkryjUvzc/MzUZTLP5kvo2JrS2lNqv/AANv6a5Gyq3T/wA1&#xA;vzLsphJb+ZdRkeoos873K1/1JjIv4Y2VeueQP+cmLwX0eleeLdYwW9M6pChjaNq0/wBIh6U8SlKf&#xA;y5ISV9CQzRTRJNC6yRSKHjkQhlZWFQykbEEZNV2KuxV2Kvmv/nJT8zJ7nUD5K0yUrZ2vF9XdT/eT&#xA;GjLDUfsxihb/ACv9XISKsT/Iv8rtO886xfSarKy6XpSxNPbxHjJM85cIvL9lR6bFiN/14Ii1fRKf&#xA;kn+ViQCEeXbcoBSrNKz0/wBcuX/HJ8IVBz/84/flJLyP6C9Nm/aS5u1p8h6vH8MeEKll9/zjP+WN&#xA;yhWCO8smI2eG4LEH5TCUYOEK8c/Mz8gfMHlG3k1TTpTq+iR7yyqnGeBfGWME1Ufzr9IGRMVeVZFW&#xA;X+Q/zT83eSrlTpd0ZdPLVn0yer27g9aL+w3+UtD416YQaV9Xflz+aXlzz1YGWwf6vqMIBvNMlI9W&#xA;Ov7Snbmlf2h9NDlgNqlH/OQul/X/AMq9UcLyksnguoxSv2ZVRz9CO2CXJXnn/OJM1LjzRDT7aWT8&#xA;vDgZxSn+zwQV9BanqFtpum3eo3TcLazhkuJ28EiUux+4ZNXwTrF9c6tqN/rVyw9a9unmlWu5edmk&#xA;bjt0X+mUq+n/APnGjyb+iPJkmuXCUvdcfmhI3W1iqsQ/2Tcn9wRlkQr2DJKxb8wPzG8u+SNJ+u6p&#xA;JzuZQRZWEZHrTuPAH7Kj9pjsPc0BBNK+R/PH5g+a/P2spJfMzRl+On6VByMcfI0Cog3d27t1PyoM&#xA;rJtXo/5ef84y6nqCRah5vlfTrVqMmmwkfWWHUeox5LF8t2/1TkhFXtul/lL+Wum2wt4PLlhIoH27&#xA;qFLqQ/N5xI345KgrBfzU/wCcffLupaRc6l5Vs107WrdDKtpB8MFwFFTH6f2Ucj7JWgrsfEAxV8v3&#xA;l5cXbo9w3OWONYvUNSzKmy8ievFaKPYDK1fT3/OL/m651Tyve6DduZH0SRDasx3+r3HIqn+wdG+g&#xA;gZZEq9pySuxVCaxqUOl6RfanP/c2NvLcy/6sKF2/BcVfAmo391qOoXWoXb+pdXkrzzuf2pJGLMfv&#xA;OUq+v/yR/LrSPK3le11O3Mr6lrlna3F+0rhlUmP1AkYUKAqmQ+J98siFej5JXYq7FXMqspVgCpFC&#xA;DuCDir5e/Pj8lhoMknmfy5BTRZGrf2af8ersftoB0iY9v2T7dK5RV4lkVR2h65quharb6rpVw1rf&#xA;Wrc4Zk/EEdCpGxB2IxV9WaN580/8zPyp16JVWHWU0+4hv7IfsTGFvTkQE1MbMKrX5dssuwrzv/nE&#xA;4n/EOvDt9Ui/5O4IKzv/AJyW83DSPI66NA/G812T0iAaEW0RDyn6TwT5E4ZFXzZ5G8rXfmrzVpug&#xA;29QLuUes4/3XCvxTSf7FFPzO2QAV91WdpbWVpBZ2qCK2to0hgiXoqRqFVR8gMtV5t+aP56eX/J8c&#xA;un6eU1TzDQgWyNWKA+M7r3H8g+Lxp1yJlSvm+w03z3+aHmx2Uyajqc9DcXUnwwwRV25EDjHGvZQP&#xA;kK5Dmr6g/LP8m/Lfki3S4VRf66y0n1OVRVaihWBTX01/4Y9z2ywClZ/hV2KuxV8JfmHZwWXnzzFa&#xA;29BBDqV0sSr0VfWai/7HplRV6f8A84oyuPNusxA/A9gGYe6zIB/xI5KCvp7Jq7FWLfmoSPy28zUN&#xA;P9x1yPvjOA8lfDWVK++fKc0c/lXRp4v7uWxtnTp9loVI6ZcFTXFXYq7FXYqsnghuIJIJ41lgmUxy&#xA;xOAysjCjKwOxBHXFXyJ+dn5Qz+TNTOpaYjSeWr1z6DbsbaQ7+i58P5Ceo2O43rkKV5fkVTvyf5u1&#xA;byprSarprDnweG4havCWGQUeN6du48CAcIKvSv8AnFi+MPn6+tS1EutOkovi8c0TDv8Ay8sMVYv+&#xA;dvnQea/P17cQPz02w/0Kw8CkRPNx/ryFmB8KeGCRVNfyd89+TfIdrqGt6hHNqHmC6H1aysoFoIoB&#xA;RmZ5Xoo9RqD4eRHHpvhBpVvnT/nIbz35iSS1s5F0TT5BQw2hPrMp7POaN/wAXEyVDflt+SPmnznN&#xA;Fe3CtpugseUmoTKeUq9aQId3J/m+z7npiI2r6u8p+UNA8qaTHpei2wt7dd5H6ySvSheV+rMf9rbJ&#xA;gKnOFXYq7FULqupWel6bdalev6dpZxPPO/gkalm/AYq+B9Z1KXVdYvtTmFJr64luZB1+KZy5/Fsp&#xA;V77/AM4m6PIIvMGsupETtBZwv2LKGklH0co8nBX0Lk1diqC13S49W0TUNKkNI7+2mtXPgs0ZjP8A&#xA;xLFXwLf2N1YX1xY3cZiurWR4Z4z1WSNirA/IjKVfXX/OPXm2HXfy8tLJnBvtE/0K4jruIxUwNTwM&#xA;fw/NTlkTsr03JK7FXYq7FXYqhNX0nTtY0240zUoFubG7QxzwP0ZT+IIO4I3B3xV8b/mz+VmpeRNa&#xA;4jlcaJdsW0+9oenX0ZD0Eij/AIIb+IFRFKwTAqb+WPM2oeXb2e+09uFzNaz2iyA0KC4QoWHuoNR7&#xA;4QVSjAr0XyD+RfnTzckV56Y0vR5KFb+6Bq6nvDEKO/sTRT/NkhFX0B5M/IHyB5b4Tz236Z1FaH61&#xA;fAOit/xXB/djfccgzDxyQir0kAAAAUA2AGSV2KuxV2KoXUtV0zTLVrrUruGytk+1PcSLEg/2TkDF&#xA;XzN+eP54QeZIW8t+W3Y6LyBvb4hkNyymoRFNCIwdzUVY+w3rlJXjFtbT3NxFbW8bS3E7rHDEgqzO&#xA;54qqgdSScir7h/LHycvlDyVp+jMAbtFM1+67hriX4pN+4X7IPgMtAVlOFXYq7FXzr/zkX+U1011L&#xA;510SAyxyAHWraMVKlRQXCgfskD46dPteNISCvIPy/wDP2s+SdfTVtNIkRh6d5ZuSI54ialWp0I6q&#xA;3Y/SMiDSvqnyv+ev5b69aq76pHpVzQera6gwgKkjtIx9Nh8m+7LBIKyC4/MLyHbQevN5i01YqVDC&#xA;7hNf9UBiT9GNqwzXv+ckvy10zklpPcatMNuNpEQlfd5vSFPda4OIKwTU/wDnLO+ZmGl+Xoo1H2ZL&#xA;q4aQn3KIkdP+CwcapR/0NX579Wv6M0v0f5PTuOX/AAXr0/4XBxKg7z/nJ/8AMidqwx6farXZY4Hb&#xA;b3Mkj48RVjvmH86vPvmLSp9J1m5t7uwuB8cLW0K0INVZWVQysp6EHBxKwTArsVVbW5ltriO4i4+r&#xA;EwdOaLItVNRVHDK3yIxVlh/OL8zyAP8AEd4AKUowHTfsMNlVy/nL+aKsCPMd3UGoqVI+4rjxFUXF&#xA;+fP5sxMWXzBISRT44LZx9zREY8RVV/6GC/N7/q/f9Oll/wBUcPEVWyfn9+bkiFG18gHqVtrNT96w&#xA;g48RVLb383vzNvARN5kvVr19GT0Pb/dITBZVjeo3OrXci3OpS3FxJIKpNcM7sw9metRgVDRxySyL&#xA;FEpeRyFRFBLMxNAAB1JxV9M/kR+SU+iSR+afM0ATVONdN09x8VuGH97KO0hB2X9nv8X2Zxir3PJq&#xA;7FXy/wD9DW+cv+rRp33T/wDVTK+NXf8AQ1vnL/q0ad90/wD1Ux41aP8Azlb5xIodI06nyn/6qY8a&#xA;vLPNPmCx13UXv4NIttIllNZYrIusLMTUt6bl+J/1aD2wFUlwK7FXYq7FUZZazqliD9RuXtWagMkH&#xA;7uTb/LSj/jiqDxV2KuxV2KuxV2KuxV2KuxV2Kq0N3cwD9zIYj/Mnwt/wQocVU3keSQySsXdjV2Y1&#xA;Yk9SScVZv5H/ADOh8msJ9N8u6fcaiKj9I3ZmlnAPZaOqJ/sFHvhBpWa/9DW+cv8Aq0ad90//AFUw&#xA;8au/6Gt85f8AVo077p/+qmPGrv8Aoa3zl/1aNO+6f/qpjxq8RyKvRvKX5D+d/NPl+117TJLJbG89&#xA;T0hNK6SfupGiaqiNh9pD3yQiqb/9Cv8A5k/7907/AJHyf9UseEq7/oV/8yf9+6d/yPk/6pY8JV3/&#xA;AEK/+ZP+/dO/5Hyf9UseEq7/AKFf/Mn/AH7p3/I+T/qljwlXf9Cv/mT/AL907/kfJ/1Sx4SqQXn5&#xA;KecbS6ltpXtPUhYo/GViKjbb4MqOQA0qj/yp7zZ/Pa/8jG/5oweKFRemfkZ501G8S0t3sxK4JHOV&#xA;wPhFT0Q5KMwTSp1/0K/+ZP8Av3Tv+R8n/VLLOEq7/oV/8yf9+6d/yPk/6pY8JV3/AEK/+ZP+/dO/&#xA;5Hyf9UseEq7/AKFf/Mn/AH7p3/I+T/qljwlXf9Cv/mT/AL907/kfJ/1Sx4Srv+hX/wAyf9+6d/yP&#xA;k/6pY8JV3/Qr/wCZP+/dO/5Hyf8AVLHhKu/6Ff8AzJ/37p3/ACPk/wCqWPCVd/0K/wDmT/v3Tv8A&#xA;kfJ/1Sx4Srv+hX/zJ/37p3/I+T/qljwlXf8AQr/5k/7907/kfJ/1Sx4Srv8AoV/8yf8Afunf8j5P&#xA;+qWPCVd/0K/+ZP8Av3Tv+R8n/VLHhKvPPOHlLVfKevTaJqhia9gVGcwMXSkiB1oSF7HwwEKkuBXY&#xA;q+y/+cff/JQ6D/0d/wDUbNlseSvQ8KuxV2KuxV2KvJvMP/Hdv/8AjO/68wMn1FUuyCp95I/5SKD/&#xA;AFZP+IHLcP1K9MzNV2KuxV2KuxV2KuxV2KuxV2KuxV2KuxV8e/8AORn/AJNfU/8AjDa/8mEyuXNX&#xA;meRV2Kvsv/nH3/yUOg/9Hf8A1GzZbHkr0PCrsVdirsVdirybzD/x3b//AIzv+vMDJ9RVLsgqfeSP&#xA;+Uig/wBWT/iBy3D9SvTMzVdirsVdirsVdirsVdirsVdirsVdirsVfHv/ADkZ/wCTX1P/AIw2v/Jh&#xA;MrlzV5nkVdir7L/5x9/8lDoP/R3/ANRs2Wx5K9Dwq7FXYq7FXYq8m8w/8d2//wCM7/rzAyfUVS7I&#xA;Kn3kj/lIoP8AVk/4gctw/Ur0zM1XYq7FXYq7FXYq7FXYq7FXYq7FXYq7FXx7/wA5Gf8Ak19T/wCM&#xA;Nr/yYTK5c1eZ5FXYq+y/+cff/JQ6D/0d/wDUbNlseSvQ8KuxV2KuxV2KvJvMP/Hdv/8AjO/68wMn&#xA;1FUuyCp95I/5SKD/AFZP+IHLcP1K9MzNV2KuxV2KuxV2KuxV2KuxV2KuxV2KuxV8e/8AORn/AJNf&#xA;U/8AjDa/8mEyuXNXmeRV2Kvsv/nH3/yUOg/9Hf8A1GzZbHkr0PCrsVdirsVdirybzD/x3b//AIzv&#xA;+vMDJ9RVLsgqfeSP+Uig/wBWT/iBy3D9SvTMzVdirsVdirsVdirsVdirsVdirsVdirsVfHv/ADkZ&#xA;/wCTX1P/AIw2v/JhMrlzV5nkVdir6+/IXWdJtvyn0KGe7iilT61yRmAIreTEbfI5ITA6q9A/xFoX&#xA;/LfB/wAGMPiR71d/iLQv+W+D/gxj4ke9Xf4i0L/lvg/4MY+JHvV3+ItC/wCW+D/gxj4ke9Xf4i0L&#xA;/lvg/wCDGPiR71eZ65LHNrF5LEweN5nZHXcEE9RmFM+oqgciqc+Ubm3ttdhmuJFiiVXBdzQCqkDf&#xA;LMRAkr0H/EWhf8t8H/BjMvxI96u/xFoX/LfB/wAGMfEj3q7/ABFoX/LfB/wYx8SPerv8RaF/y3wf&#xA;8GMfEj3q7/EWhf8ALfB/wYx8SPerv8RaF/y3wf8ABjHxI96u/wARaF/y3wf8GMfEj3q7/EWhf8t8&#xA;H/BjHxI96u/xFoX/AC3wf8GMfEj3q7/EWhf8t8H/AAYx8SPerv8AEWhf8t8H/BjHxI96u/xFoX/L&#xA;fB/wYx8SPerv8RaF/wAt8H/BjHxI96vkj/nIO5t7n80tSmt5FliaK2AdDUGkCA75Em1ecYFdir3v&#xA;8sP+UG03/nv/ANREmY2T6lZTkFdirsVdirsVdirsVdirsVdirsVdirsVdirsVdirsVdirsVdirsV&#xA;eE/mr/ymt3/qQ/8AJpcycfJWI5NXYq97/LD/AJQbTf8Anv8A9REmY2T6lZTkFdirsVdirsVdirsV&#xA;dirsVdirsVdirsVdirsVdirsVdirsVdirsVeE/mr/wAprd/6kP8AyaXMnHyViOTV2Kvqr8kvJlhq&#xA;P5YaLeyzypJL9Zqq8aDjdyr3Htg8EHdWc/8AKu9M/wCWmf8A4T/mnH8uFd/yrvTP+Wmf/hP+acfy&#xA;4V3/ACrvTP8Alpn/AOE/5px/LhXf8q70z/lpn/4T/mnH8uFd/wAq70z/AJaZ/wDhP+acfy4VhWqW&#xA;iWmo3NqhLJDIyKzdSFNN6ZiyFGlQuBUy8vaZFqeqR2crsiOGJZKV+FSe9cnjjxGlZb/yrvTP+Wmf&#xA;/hP+acyPy4V3/Ku9M/5aZ/8AhP8AmnH8uFd/yrvTP+Wmf/hP+acfy4V3/Ku9M/5aZ/8AhP8AmnH8&#xA;uFd/yrvTP+Wmf/hP+acfy4V3/Ku9M/5aZ/8AhP8AmnH8uFd/yrvTP+Wmf/hP+acfy4V3/Ku9M/5a&#xA;Z/8AhP8AmnH8uFd/yrvTP+Wmf/hP+acfy4V3/Ku9M/5aZ/8AhP8AmnH8uFd/yrvTP+Wmf/hP+acf&#xA;y4V3/Ku9M/5aZ/8AhP8AmnH8uFd/yrvTP+Wmf/hP+acfy4V8ufntpkWmfmTqFnE7OiRW5DPSvxQq&#xA;e1MIjw7K8/xV2Kvsv/nH3/yUOg/9Hf8A1GzZbHkr0PCrsVdirsVdirybzD/x3b//AIzv+vMDJ9RV&#xA;LsgqfeSP+Uig/wBWT/iBy3D9SvTMzVdirsVdirsVdirsVdirsVdirsVdirsVfHv/ADkZ/wCTX1P/&#xA;AIw2v/JhMrlzV5nkVdir7L/5x9/8lDoP/R3/ANRs2Wx5K9Dwq7FXYq7FXYq8m8w/8d2//wCM7/rz&#xA;AyfUVS7IKn3kj/lIoP8AVk/4gctw/Ur0zM1XYq7FXYq7FXYq7FXYq7FXYq7FXYq7FXx7/wA5Gf8A&#xA;k19T/wCMNr/yYTK5c1eZ5FXYq+y/+cff/JQ6D/0d/wDUbNlseSvQ8KuxV2KuxV2KvJvMP/Hdv/8A&#xA;jO/68wMn1FUuyCp95I/5SKD/AFZP+IHLcP1K9MzNV2KuxV2KuxV2KuxV2KuxV2KuxV2KuxV8e/8A&#xA;ORn/AJNfU/8AjDa/8mEyuXNXmeRV2Kvsv/nH3/yUOg/9Hf8A1GzZbHkr0PCrsVdirsVdirybzD/x&#xA;3b//AIzv+vMDJ9RVLsgqfeSP+Uig/wBWT/iBy3D9SvTMzVdirsVdirsVdirsVdirsVdirsVdirsV&#xA;fHv/ADkZ/wCTX1P/AIw2v/JhMrlzV5nkVdir7L/5x9/8lDoP/R3/ANRs2Wx5K9Dwq7FXYq7FXYq8&#xA;m8w/8d2//wCM7/rzAyfUVS7IKn3kj/lIoP8AVk/4gctw/Ur0zM1XYq7FXYq7FXYq7FXYq7FXYq7F&#xA;XYq7FXx7/wA5Gf8Ak19T/wCMNr/yYTK5c1eZ5FXYq+y/+cff/JQ6D/0d/wDUbNlseSvQ8KuxV2Ku&#xA;xV2KvJvMP/Hdv/8AjO/68wMn1FUuyCp95I/5SKD/AFZP+IHLcP1K9MzNV2KuxV2KuxV2KuxV2Kux&#xA;V2KuxV2KuxV8e/8AORn/AJNfU/8AjDa/8mEyuXNXmeRV2Kvsv/nH3/yUOg/9Hf8A1GzZbHkr0PCr&#xA;sVdirsVdirybzD/x3b//AIzv+vMDJ9RVLsgqfeSP+Uig/wBWT/iBy3D9SvTMzVdirsVdirsVdirs&#xA;VdirsVdirsVdirsVfHv/ADkZ/wCTX1P/AIw2v/JhMrlzV5nkVdir7L/5x9/8lDoP/R3/ANRs2Wx5&#xA;K9Dwq7FXYq7FXYq8m8w/8d2//wCM7/rzAyfUVS7IKn3kj/lIoP8AVk/4gctw/Ur0zM1XYq7FXYq7&#xA;FXYq7FXYq7FXYq7FXYq7FXx7/wA5Gf8Ak19T/wCMNr/yYTK5c1eZ5FXYq+mPye/OH8ufL35c6Ro+&#xA;sav9V1G1+sevB9XupOPqXUsi/FHE6GqODscmCKVmf/QwX5Q/9X7/AKdL3/qjkuIK7/oYL8of+r9/&#xA;06Xv/VHHiCu/6GC/KH/q/f8ATpe/9UceIK7/AKGC/KH/AKv3/Tpe/wDVHHiCu/6GC/KH/q/f9Ol7&#xA;/wBUceIK871n81/IFzq13PDqnOKWVmRvQuRUE7bGMHMOcCSVQf8Ays/yN/1cv+SFx/1TyPhyVNvK&#xA;35u/l5Y61Dc3WrenCquGf6vct1UgbLETlmKJErKs6/6GC/KH/q/f9Ol7/wBUcyuIK7/oYL8of+r9&#xA;/wBOl7/1Rx4grv8AoYL8of8Aq/f9Ol7/ANUceIK7/oYL8of+r9/06Xv/AFRx4grv+hgvyh/6v3/T&#xA;pe/9UceIK7/oYL8of+r9/wBOl7/1Rx4grv8AoYL8of8Aq/f9Ol7/ANUceIK7/oYL8of+r9/06Xv/&#xA;AFRx4grv+hgvyh/6v3/Tpe/9UceIK7/oYL8of+r9/wBOl7/1Rx4grv8AoYL8of8Aq/f9Ol7/ANUc&#xA;eIK7/oYL8of+r9/06Xv/AFRx4grv+hgvyh/6v3/Tpe/9UceIK+bfzp8y6L5k/MG+1bRbn61p80cC&#xA;xz8JI6lIVVvhkVG2I8Mrkd1YNgV2KuxV2KuxV2KuxV2KuxV2KuxV2KuxV2KuxV2KuxV2KuxV2Kux&#xA;V2KuxV2KuxV2Kv8A/9k=</xmpGImg:image>
               </rdf:li>
            </rdf:Alt>
         </xmp:Thumbnails>
         <xmpMM:InstanceID>xmp.iid:90950c78-634b-4a3c-8e5f-f30fc8ade9f4</xmpMM:InstanceID>
         <xmpMM:DocumentID>xmp.did:90950c78-634b-4a3c-8e5f-f30fc8ade9f4</xmpMM:DocumentID>
         <xmpMM:OriginalDocumentID>uuid:5D20892493BFDB11914A8590D31508C8</xmpMM:OriginalDocumentID>
         <xmpMM:RenditionClass>proof:pdf</xmpMM:RenditionClass>
         <xmpMM:DerivedFrom rdf:parseType="Resource">
            <stRef:instanceID>xmp.iid:d3de61d5-5fdb-4a33-8534-f69002aa1c76</stRef:instanceID>
            <stRef:documentID>xmp.did:d3de61d5-5fdb-4a33-8534-f69002aa1c76</stRef:documentID>
            <stRef:originalDocumentID>uuid:5D20892493BFDB11914A8590D31508C8</stRef:originalDocumentID>
            <stRef:renditionClass>proof:pdf</stRef:renditionClass>
         </xmpMM:DerivedFrom>
         <xmpMM:History>
            <rdf:Seq>
               <rdf:li rdf:parseType="Resource">
                  <stEvt:action>saved</stEvt:action>
                  <stEvt:instanceID>xmp.iid:605d5c4c-d6fe-4f0d-a2e4-4e700355617f</stEvt:instanceID>
                  <stEvt:when>2015-11-10T19:07:43-05:00</stEvt:when>
                  <stEvt:softwareAgent>Adobe Illustrator CC 2014 (Macintosh)</stEvt:softwareAgent>
                  <stEvt:changed>/</stEvt:changed>
               </rdf:li>
               <rdf:li rdf:parseType="Resource">
                  <stEvt:action>saved</stEvt:action>
                  <stEvt:instanceID>xmp.iid:90950c78-634b-4a3c-8e5f-f30fc8ade9f4</stEvt:instanceID>
                  <stEvt:when>2015-11-10T19:47:44-05:00</stEvt:when>
                  <stEvt:softwareAgent>Adobe Illustrator CC 2014 (Macintosh)</stEvt:softwareAgent>
                  <stEvt:changed>/</stEvt:changed>
               </rdf:li>
            </rdf:Seq>
         </xmpMM:History>
         <illustrator:StartupProfile>Print</illustrator:StartupProfile>
         <xmpTPg:HasVisibleOverprint>False</xmpTPg:HasVisibleOverprint>
         <xmpTPg:HasVisibleTransparency>False</xmpTPg:HasVisibleTransparency>
         <xmpTPg:NPages>1</xmpTPg:NPages>
         <xmpTPg:MaxPageSize rdf:parseType="Resource">
            <stDim:w>2.000000</stDim:w>
            <stDim:h>2.000000</stDim:h>
            <stDim:unit>Inches</stDim:unit>
         </xmpTPg:MaxPageSize>
         <xmpTPg:PlateNames>
            <rdf:Seq>
               <rdf:li>Cyan</rdf:li>
               <rdf:li>Magenta</rdf:li>
               <rdf:li>Yellow</rdf:li>
               <rdf:li>Black</rdf:li>
            </rdf:Seq>
         </xmpTPg:PlateNames>
         <xmpTPg:SwatchGroups>
            <rdf:Seq>
               <rdf:li rdf:parseType="Resource">
                  <xmpG:groupName>Default Swatch Group</xmpG:groupName>
                  <xmpG:groupType>0</xmpG:groupType>
               </rdf:li>
            </rdf:Seq>
         </xmpTPg:SwatchGroups>
         <pdf:Producer>Adobe PDF library 10.01</pdf:Producer>
      </rdf:Description>
   </rdf:RDF>
</x:xmpmeta>
                                                                                                    
                                                                                                    
                                                                                                    
                                                                                                    
                                                                                                    
                                                                                                    
                                                                                                    
                                                                                                    
                                                                                                    
                                                                                                    
                                                                                                    
                                                                                                    
                                                                                                    
                                                                                                    
                                                                                                    
                                                                                                    
                                                                                                    
                                                                                                    
                                                                                                    
                                                                                                    
                           
<?xpacket end="w"?>
	</metadata>
<g>
	<path fill="#34362B" d="M92.8,46.7c-0.4-2-1.7-3.4-3.1-4.4c-0.1-0.1-0.3-0.2-0.4-0.3c-2.3-1.3-5.4-1.6-8-1
		c-6.4,1.6-10.4,7.6-16.2,10.7c-1.8,1-3.7,1.6-5.7,2.3c1.7-3.1,3-6.3,4.4-9.6c2.9-6.8,5-14.4,2.1-21.6l0,0l0,0
		c0-0.1-0.1-0.2-0.1-0.3c-0.3-0.7-1.1-0.6-1.6-0.2c-0.5-0.1-1.1,0.2-1.1,1c0,0.3,0,0.6,0,0.9c0,0.3-0.1,0.8-0.3,1.1
		c-0.2,0.3-0.1,0.7,0.2,1c-0.1,0.2-0.2,0.2-0.3,0.3c-0.2,0.1-0.3,0.1-0.5,0.1c-0.4-0.8-1-1.6-1.6-2.2c0-0.1-0.1-0.2-0.1-0.2
		c-0.2-0.5-0.6-0.8-1-0.7c-0.1-0.1-0.2-0.2-0.3-0.2c-0.9-0.6-1.9,0.5-1.4,1.4c3.3,6.2,2.9,13.5,1,20c-1,3.6-2.6,7-4.2,10.3
		c-0.3,0.5-0.5,1-0.8,1.7c-0.2-1.8-0.3-3.7-0.6-5.6c0-1.6,0-3.1-0.2-4.7c-0.1-2.7-0.1-5.4-0.2-8.1c-0.2-4.6-0.7-9.5-3.9-12.7
		c0-0.6-0.6-1-1.1-1c-0.1,0-0.1-0.1-0.2-0.1c-0.9-0.6-2,0.6-1.4,1.4c0.1,0.2,0.3,0.3,0.3,0.5c-0.9,1.9-3.2,3-5.3,2.3
		c-0.3-0.1-0.7-0.1-0.9,0.2c-0.2-0.1-0.3-0.1-0.5-0.2c-1-0.3-1.8,1-1,1.7c2.4,1.9,5.2,3.4,7.6,5.6c1.1,1,2,2.2,2.7,3.5
		c0.9,3.7,1.5,7.5,2,11.3c0,0.3,0,0.8,0,1.1s0,0.6-0.1,1c-1.4-2.1-3-4-4.8-5.7c-3.9-3.5-8.9-5.7-14-6.5c-2.6-0.4-5.2-0.4-7.7-0.1
		c-3,0.4-5.4,1.6-7.2,4c-3.1,4-3.8,10-1,14.4c3.2,5,9.7,6.2,15.2,6c3.5-0.1,7-0.6,10.4-0.6c3.6-0.1,7.2,0.3,10.8,0.9
		c0.1,0,0.2,0,0.3,0c0.2,0.2,0.4,0.3,0.7,0.3h0.3c0.5,0,1-0.4,1-1c0-0.3-0.2-0.7-0.4-0.9l0,0c5.5,0.4,11,0.9,16.5,1.1
		c5.7,0.3,11.8-0.3,16.5-3.8C91.9,57.9,94,52,92.8,46.7z M65,34.1c-0.1,0.3-0.1,0.7-0.2,1c-0.1-0.1-0.2-0.1-0.3-0.1
		C64.7,34.7,64.9,34.3,65,34.1z M46.3,33.4c0.4,0.2,0.8,0.3,1.2,0.4c0.2,0.3,0.3,0.6,0.4,1c0,0,0,0,0,0.1
		C47.4,34.2,46.9,33.8,46.3,33.4z M50.8,37.4C50.8,37.4,50.9,37.4,50.8,37.4c0.1,0.1,0.1,0.3,0.1,0.5C50.9,37.7,50.8,37.5,50.8,37.4
		z M43.5,52c-1.2-1.3-2.4-2.7-3.7-4C41.1,49.2,42.4,50.6,43.5,52z M36,62.8c1.5-0.3,3-0.6,4.3-0.9c0,0.2,0.1,0.3,0.3,0.5
		C39.1,62.6,37.6,62.7,36,62.8z M40.5,59.9c-0.1,0-0.2,0-0.3,0c-3-0.3-5.9,0.3-8.8,1c-1.3,0.3-2.6,0.7-3.9,0.8
		c-0.8,0-1.5-0.1-2.3-0.2c-0.3,0-0.4-0.1-0.7-0.1c-0.5-0.2-1.1-0.4-1.7-0.7c-2.3-1.5-3.7-4.2-3.9-6.9c-0.2-1.6-0.1-3.4,0.3-5.1
		c0.7,0.2,1.6-0.3,1.2-1.2c-0.5-1.4,0.7-2.4,1.9-2.8c1.5-0.4,3.3-0.1,4.9,0c1.7,0.1,3.3,0.1,5,0.3c1.6,0.3,2.8,1,3.9,2.1
		c2.4,2.2,4.4,4.9,6.7,7.3c1.1,1.3,2.3,2.6,3.5,3.8c0.3,0.4,0.7,0.8,1,1.2C45.1,59.3,42.9,59.5,40.5,59.9z M60.5,46.1
		c0.1,0.1,0.3,0.1,0.3,0.1c-0.6,1.5-1.3,3-2,4.3C59.5,49.2,60.1,47.7,60.5,46.1z M69.2,61.4L69.2,61.4c0.3,0,0.6,0,0.9,0
		C69.8,61.4,69.6,61.4,69.2,61.4z M80.7,62.1c-1.4,0.3-2.8,0.6-4.3,0.7c0.3-0.1,0.5-0.1,0.7-0.2c2-0.4,4.1-0.9,6.1-1.6
		C82.5,61.5,81.7,61.9,80.7,62.1z M87.8,52c-0.6,2.8-2.3,5.3-5,6.2c-3,1-6.5,1-9.6,1.1c-3.1,0.1-6.3-0.2-9.5-0.3
		c-2-0.1-4.1-0.1-6.1,0.2c1-1,2.3-1.8,3.7-2.4c1.3-0.6,2.7-1.2,4.1-1.8c1.4-0.7,2.7-1.6,3.9-2.5c2.5-2,4.9-4,7.6-5.7
		c2.4-1.6,5.6-3.5,8.4-1.9C87.9,46.2,88.3,49.4,87.8,52z M86.6,43.2c0.5,0.2,1,0.4,1.6,0.7c0.5,0.9,1,1.8,1.2,2.9
		C88.9,45.4,88,44.1,86.6,43.2z"/>
	<rect x="33.8" y="63.8" fill="#B0B591" width="9.1" height="72.7"/>
	<rect x="11.4" y="90.4" fill="#B0B591" width="82.7" height="9.1"/>
	<rect x="10.2" y="65.7" fill="none" stroke="#34362B" stroke-width="4.4692" stroke-miterlimit="10" width="84.1" height="69.9"/>
</g>
</svg>
